# xmcd
#
# Track frame offsets:
#	150
#	58498
#	75296
#
# Disc length: 1188 seconds
#
# Revision: 1
# Processed by: cddbd v1.5.1PL0 Copyright (c) Steve Scherf et al.
# Submitted via: EasyCDDAExtractor 5.1.0
#
DISCID=1d04a203
DTITLE=Black Sabbath - Satanic Memory Tokyo 16-10-89 Disc 2
DYEAR=1989
DGENRE=Hard Rock
TTITLE0=Heaven and Hell
TTITLE1=Paranoid
TTITLE2=Heaven and Hell Reprise
EXTD=
EXTT0=
EXTT1=
EXTT2=
PLAYORDER=
